<svg xmlns="http://www.w3.org/2000/svg" width="46" height="46" viewBox="0 0 46 46"><g><g><path fill="#405de6" d="M23 0c12.703 0 23 10.297 23 23 0 12.702-10.297 23-23 23S0 35.702 0 23C0 10.297 10.297 0 23 0zm11.002 23c0-2.988-.013-3.363-.066-4.536-.054-1.171-.24-1.971-.512-2.67a5.394 5.394 0 0 0-1.269-1.95 5.395 5.395 0 0 0-1.948-1.269c-.7-.271-1.5-.458-2.67-.511-1.174-.054-1.55-.066-4.537-.066-2.988 0-3.363.012-4.536.066-1.171.053-1.971.24-2.67.511a5.394 5.394 0 0 0-1.95 1.27 5.394 5.394 0 0 0-1.268 1.948c-.272.7-.458 1.5-.512 2.67-.053 1.174-.066 1.549-.066 4.537s.013 3.362.066 4.536c.054 1.171.24 1.97.512 2.67a5.396 5.396 0 0 0 1.269 1.95 5.394 5.394 0 0 0 1.948 1.268c.7.272 1.5.458 2.67.512 1.174.053 1.549.066 4.537.066s3.363-.013 4.536-.066c1.171-.054 1.97-.24 2.67-.512a5.395 5.395 0 0 0 1.95-1.269 5.395 5.395 0 0 0 1.268-1.948c.272-.7.458-1.5.512-2.671.053-1.174.066-1.548.066-4.536zm-1.982 0c0 2.937-.012 3.285-.065 4.446-.049 1.072-.228 1.655-.378 2.043-.2.513-.438.88-.823 1.265a3.413 3.413 0 0 1-1.265.823c-.388.15-.97.33-2.043.378-1.16.053-1.508.064-4.446.064-2.938 0-3.286-.01-4.446-.064-1.072-.049-1.655-.228-2.043-.378-.513-.2-.88-.439-1.265-.823a3.41 3.41 0 0 1-.823-1.265c-.15-.388-.33-.97-.379-2.043-.053-1.16-.064-1.509-.064-4.446 0-2.938.011-3.286.064-4.446.05-1.073.229-1.655.38-2.043.199-.513.437-.88.822-1.265a3.408 3.408 0 0 1 1.265-.823c.388-.15.97-.33 2.043-.379 1.16-.053 1.508-.064 4.446-.064 2.938 0 3.286.011 4.446.064 1.072.05 1.655.228 2.043.38.513.199.88.437 1.265.822.385.385.623.752.823 1.265.15.388.33.97.378 2.043.053 1.16.065 1.508.065 4.446zm-1.347-6.265a1.408 1.408 0 1 0-2.817 0 1.408 1.408 0 0 0 2.817 0zM29.026 23a6.026 6.026 0 1 0-12.052 0 6.026 6.026 0 0 0 12.052 0zm-2.114 0a3.912 3.912 0 1 1-7.824 0 3.912 3.912 0 0 1 7.824 0z"/></g></g></svg>