<svg xmlns="http://www.w3.org/2000/svg" width="46" height="46" viewBox="0 0 46 46"><g><g><path fill="#bd081c" d="M23 0c12.702 0 23 10.297 23 23 0 12.702-10.298 23-23 23C10.297 46 0 35.702 0 23 0 10.297 10.297 0 23 0zm10.009 21.045c0-4.97-4.068-9.036-9.007-9.036-4.94 0-9.007 4.066-9.007 9.036 0 1.656.418 3.238 1.114 4.605.278.456.696.76 1.253.76.835 0 1.392-.608 1.392-1.52 0-.303 0-.455-.14-.76-.417-.91-.614-1.973-.614-3.027 0-3.313 2.659-6.069 6-6.069s6 2.756 6 6.07c0 2.409-1.107 4.903-4.299 4.903-.971 0-1.708-.624-1.708-1.73 0-1.58 1.007-2.17 1.007-3.986 0-1.397-.998-2.409-2.015-2.409-1.162 0-2.985 1.1-2.985 3.118 0 1.355.806 2.454.806 2.454.05-.048-2.814 7.366-2.814 8.801 0 .944.78 1.74 1.652 1.74.581 0 1.017-.301 1.307-.753l1.598-5.12c.727.904 2.248.886 3.361.886 5.01 0 7.244-3.747 7.099-7.963z"/></g></g></svg>