<svg xmlns="http://www.w3.org/2000/svg" width="46" height="46" viewBox="0 0 46 46"><g><g><path fill="#1da1f2" d="M23 0c12.703 0 23 10.297 23 23 0 12.702-10.297 23-23 23S0 35.702 0 23C0 10.297 10.297 0 23 0zm11.005 16.27c-.656.338-1.477.507-2.297.676.82-.676 1.476-1.351 1.805-2.534-.82.338-1.641.845-2.79 1.014-2.462-3.21-8.697-.676-7.549 4.054-4.266-.338-6.892-2.365-9.025-4.73-1.15 2.027-.164 5.236 1.312 6.08-.656 0-1.312-.168-1.805-.506.164 2.703 1.477 3.885 3.446 4.56-.492 0-1.148.17-1.805 0 .657 1.859 1.97 3.04 4.103 3.21-1.477 1.351-4.267 2.196-6.4 1.858 1.97 1.182 4.102 2.196 7.056 2.027 7.22-.338 11.98-5.743 12.144-13.513.82-.676 1.64-1.351 1.805-2.196z"/></g></g></svg>